# xmcd
#
# Track frame offsets:
#	183
#	17430
#	34848
#	50778
#
# Disc length: 997 seconds
#
# Revision: 3
# Processed by: cddbd v1.5.2PL0 Copyright (c) Steve Scherf et al.
# Submitted via: audiograbber 1.83.01
#
DISCID=2b03e304
DTITLE=Amy Grant - Every Heartbeat
DYEAR=1991
DGENRE=Kristen Pop
TTITLE0=Every Heartbeat (7'' Heart And Soul Mix)
TTITLE1=Every Heartbeat (7'' Body And Soul Mix)
TTITLE2=Every Heartbeat (7'' Piano Mix)
TTITLE3=Every Heartbeat (12'' Body And Soul Mix)
EXTD=
EXTT0=
EXTT1=
EXTT2=
EXTT3=
PLAYORDER=
